<svg width="24" height="25" xmlns="http://www.w3.org/2000/svg" xmlns:xlink="http://www.w3.org/1999/xlink"><defs><filter x="-2.1%" y="-2.1%" width="104.2%" height="108.3%" filterUnits="objectBoundingBox" id="a"><feOffset dy="1" in="SourceAlpha" result="shadowOffsetOuter1"/><feComposite in="shadowOffsetOuter1" in2="SourceAlpha" operator="out" result="shadowOffsetOuter1"/><feColorMatrix values="0 0 0 0 0 0 0 0 0 0 0 0 0 0 0 0 0 0 0.16 0" in="shadowOffsetOuter1"/></filter><path d="M3.846 0h16.308c1.337 0 1.822.14 2.311.4.49.262.873.646 1.134 1.135.262.489.401.974.401 2.31v16.31c0 1.336-.14 1.821-.4 2.31a2.726 2.726 0 01-1.135 1.134c-.489.262-.974.401-2.31.401H3.844c-1.336 0-1.821-.14-2.31-.4A2.726 2.726 0 01.4 22.464c-.261-.488-.4-.973-.4-2.309V3.844c0-1.336.14-1.821.4-2.31A2.726 2.726 0 011.536.4c.488-.261.973-.4 2.309-.4z" id="b"/></defs><g fill="none" fill-rule="evenodd"><use fill="#000" filter="url(#a)" xlink:href="#b"/><path stroke="#9DA7B3" stroke-width=".5" d="M20.154.25H3.846c-1.267 0-1.73.123-2.193.371A2.48 2.48 0 00.62 1.653c-.247.464-.37.926-.37 2.193v16.308c0 1.267.123 1.73.371 2.193a2.48 2.48 0 001.032 1.032c.464.248.926.371 2.193.371h16.308c1.267 0 1.73-.123 2.193-.371a2.48 2.48 0 001.032-1.032c.248-.464.371-.926.371-2.193V3.846c0-1.267-.123-1.73-.371-2.193A2.48 2.48 0 0022.347.62c-.464-.247-.926-.37-2.193-.37z" stroke-linejoin="square" fill="#FFF"/><path d="M16.375 19.5h-8.75A.625.625 0 017 18.875V13.25H5.125a.624.624 0 01-.46-1.047l6.872-7.5A.634.634 0 0112 4.5a.63.63 0 01.459.203l6.877 7.5a.625.625 0 01-.46 1.047H17v5.625c0 .345-.28.625-.625.625zM8.25 18.25h7.5v-5.625c0-.346.28-.625.625-.625h1.079l-5.456-5.95L6.545 12h1.08c.345 0 .625.28.625.625v5.625z" fill="#5A6068" fill-rule="nonzero"/></g></svg>