<?xml version="1.0" encoding="iso-8859-1"?>
<!DOCTYPE svg PUBLIC "-//W3C//DTD SVG 1.1//EN" "http://www.w3.org/Graphics/SVG/1.1/DTD/svg11.dtd">
<svg 
 version="1.1" xmlns="http://www.w3.org/2000/svg" xmlns:xlink="http://www.w3.org/1999/xlink" x="0px" y="0px" width="512px"
	 height="512px" viewBox="0 0 512 512" enable-background="new 0 0 512 512" xml:space="preserve"
><g id="b75708d097f2188dff6617b0f00d79e5"><g></g><g fill="#54c242"><path display="inline" d="M149.917,344.855h60.619v118.941h-89.839c-16.67,0-37.331-11.697-45.902-25.988L6.929,324.704
		c-8.572-14.302-8.572-37.686,0-51.987l46.784-77.971l-21.187-12.233l109.055-7.036l48.436,97.962l-21.883-12.633l-33.373,57.802
		C126.427,333.039,133.247,344.855,149.917,344.855z M271.154,134.873l26.918,46.615l-21.554,12.443l109.055,7.036l48.437-97.965
		l-22.856,13.195l-43.387-72.313c-8.572-14.296-29.232-25.991-45.902-25.991H190.136c-16.67,0-37.33,11.695-45.902,25.991
		l-43.605,72.681l113.087,65.293l27.13-46.985C249.18,120.438,262.819,120.438,271.154,134.873z M505.071,272.717l-46.903-78.169
		l-114.418,66.06l33.488,58c8.335,14.432,1.516,26.248-15.155,26.248h-60.619v-32.606l-60.619,90.929l60.619,90.929v-30.31h89.84
		c16.67,0,37.33-11.697,45.902-25.988l67.865-113.104C513.643,310.402,513.643,287.019,505.071,272.717z"></path></g></g></svg>