<svg width="123" height="14" xmlns="http://www.w3.org/2000/svg"><g fill="none" fill-rule="evenodd"><path d="M20.94 11V4.748h.023L25.029 11h.985V3.002h-.979v6.246h-.023l-4.067-6.246h-.984V11h.978zm12.294 0v-.914h-3.779V7.36h3.568v-.89h-3.568V3.916h3.78v-.914h-4.8V11h4.8zm4.373 0l1.682-6.275h.035L41.006 11h.908l2.209-7.998h-1.137L41.44 9.26h-.035l-1.576-6.258h-1.043L37.197 9.26h-.029l-1.547-6.258h-1.13L36.687 11h.92zm11.98 0V3.002h-1.025V11h1.026zm3.395 0V4.748h.024L57.072 11h.985V3.002h-.979v6.246h-.023l-4.067-6.246h-.984V11h.978zm10.098 0V3.916h2.432v-.914h-5.877v.914h2.431V11h1.014zm8.809 0v-.914h-3.78V7.36h3.569v-.89h-3.569V3.916h3.78v-.914h-4.8V11h4.8zm3.154 0V7.818h1.94L78.458 11h1.166l-1.629-3.387c.703-.252 1.488-.914 1.488-2.226 0-1.254-.79-2.385-2.572-2.385h-2.889V11h1.02zm1.693-4.078h-1.693V3.904h1.74c.996 0 1.647.522 1.647 1.541 0 .944-.575 1.477-1.694 1.477zM81.883 11l.808-2.402h2.977L86.477 11h1.078l-2.848-7.998h-1.043L80.816 11h1.067zm3.51-3.229h-2.426l1.201-3.562h.03l1.195 3.562zm6.47 3.399c1.694 0 2.942-1.084 2.942-2.56v-.024h-1.008c-.03.99-.803 1.664-1.928 1.664-1.365 0-2.127-.973-2.127-2.701V6.5c0-1.758.762-2.748 2.127-2.748 1.125 0 1.899.732 1.928 1.799h1.008v-.018c0-1.57-1.237-2.701-2.942-2.701-1.98 0-3.14 1.371-3.14 3.668v1.049c0 2.273 1.16 3.62 3.14 3.62zm7.59-.17V3.916h2.432v-.914h-5.877v.914h2.431V11h1.014zm5.035 0V3.002h-1.025V11h1.025zm5.293.17c1.946 0 3.217-1.277 3.217-3.54V6.454c0-2.273-1.254-3.621-3.193-3.621-1.94 0-3.217 1.348-3.217 3.621v1.178c0 2.262 1.254 3.539 3.193 3.539zm.012-.92c-1.23 0-2.18-.826-2.18-2.62V6.448c0-1.787.95-2.695 2.18-2.695 1.236 0 2.18.908 2.18 2.695v1.184c0 1.793-.944 2.619-2.18 2.619zm6.289.75V4.748h.023L120.172 11h.984V3.002h-.978v6.246h-.024l-4.066-6.246h-.984V11h.978z" fill="#00A1C0" fill-rule="nonzero"/><path stroke="#00A1C0" stroke-linecap="square" d="M5.5 3v8"/><path stroke="#00A1C0" stroke-linecap="square" d="M1.5 7h8"/></g></svg>